<svg id="climbing" xmlns="http://www.w3.org/2000/svg" width="512" height="512" viewBox="0 0 512 512">
  <g id="Groupe_124" data-name="Groupe 124">
    <g id="Groupe_123" data-name="Groupe 123">
      <path id="Tracé_259" data-name="Tracé 259" d="M45,61a45,45,0,1,0,45,45A45.05,45.05,0,0,0,45,61Z" fill="#ffe400"/>
    </g>
  </g>
  <g id="Groupe_126" data-name="Groupe 126">
    <g id="Groupe_125" data-name="Groupe 125">
      <path id="Tracé_260" data-name="Tracé 260" d="M264.961,404.359l-60-90A29.953,29.953,0,0,0,180,301H90V234.437l97.295-24.331A29.936,29.936,0,0,0,210,181V121a30,30,0,0,0-60,0v36.563L52.705,181.894A29.936,29.936,0,0,0,30,211V331a30.039,30.039,0,0,0,30,30H163.945l51.094,76.641a30,30,0,1,0,49.922-33.282Z" fill="#ffe400"/>
    </g>
  </g>
  <g id="Groupe_128" data-name="Groupe 128">
    <g id="Groupe_127" data-name="Groupe 127">
      <path id="Tracé_261" data-name="Tracé 261" d="M497,0H135a15,15,0,0,0-10.605,25.606L161.888,64.1A59.2,59.2,0,0,1,180,61a59.937,59.937,0,0,1,57.907,45.117l7.987,2.664,92.4-46.2a15,15,0,1,1,13.418,26.836L274.136,128.2l23.558,117.755L390,215.189V166a15,15,0,0,1,30,0v60a14.984,14.984,0,0,1-10.254,14.224L308.87,273.845,346.972,331H435a15,15,0,0,1,0,30H364.189l26.587,79.746a15,15,0,0,0,5.9,7.734l92,61A15,15,0,0,0,512,497V15A14.991,14.991,0,0,0,497,0Z" fill="#ffe400"/>
    </g>
  </g>
  <g id="Groupe_130" data-name="Groupe 130">
    <g id="Groupe_129" data-name="Groupe 129">
      <path id="Tracé_262" data-name="Tracé 262" d="M144.976,404.374,136.089,391H63.946L90,430.082V482a30,30,0,0,0,60,0V421A29.827,29.827,0,0,0,144.976,404.374Z" fill="#ffe400"/>
    </g>
  </g>
</svg>
